<?xml version="1.0" standalone="no"?>
<!DOCTYPE svg PUBLIC "-//W3C//DTD SVG 20010904//EN"
 "http://www.w3.org/TR/2001/REC-SVG-20010904/DTD/svg10.dtd">
<svg version="1.0" xmlns="http://www.w3.org/2000/svg"
 width="40.000000pt" height="40.000000pt" viewBox="0 0 40.000000 40.000000"
 preserveAspectRatio="xMidYMid meet">

<g transform="translate(0.000000,40.000000) scale(0.100000,-0.100000)"
fill="#000000" stroke="none">
<path d="M177 273 c-12 -3 -16 -10 -12 -24 5 -16 1 -19 -23 -19 -32 0 -42 -14
-42 -56 0 -33 28 -31 32 3 4 39 28 42 28 4 0 -17 4 -31 10 -31 13 0 24 45 17
70 -3 11 1 24 9 31 15 12 19 30 7 28 -5 -1 -16 -3 -26 -6z"/>
<path d="M30 250 c0 -5 6 -10 13 -10 8 0 11 -14 9 -45 -2 -26 0 -45 6 -45 13
0 22 25 22 61 0 19 5 29 15 29 8 0 15 5 15 10 0 6 -18 10 -40 10 -22 0 -40 -4
-40 -10z"/>
<path d="M196 179 c-8 -56 -1 -73 18 -49 6 8 20 20 31 26 12 7 21 24 23 43 3
29 1 31 -31 31 -34 0 -35 -1 -41 -51z m48 6 c-4 -8 -10 -13 -15 -10 -4 3 -6
12 -3 20 4 8 10 13 15 10 4 -3 6 -12 3 -20z"/>
</g>
</svg>
